<svg width="220" height="70" viewBox="0 0 220 70" fill="none" xmlns="http://www.w3.org/2000/svg">
<rect x="0.5" y="0.5" width="219" height="69" rx="7.5" stroke="#D9DBE1"/>
<rect x="10" y="11" width="48" height="48" rx="4" fill="#00D3AB" fill-opacity="0.1"/>
<path d="M27.333 25.8333V28.3333H24.833V30H27.333V32.5H28.9997V30H31.4997V28.3333H28.9997V25.8333H27.333ZM33.1663 29.1667C33.1663 31.9281 30.9278 34.1667 28.1663 34.1667C27.5819 34.1667 27.021 34.0664 26.4997 33.8822V41.6722C26.4997 42.1293 26.8721 42.5 27.3316 42.5H35.6663V37.5C35.6663 37.0417 36.0413 36.6667 36.4997 36.6667H41.4997V28.3321C41.4997 27.8729 41.129 27.5 40.6718 27.5H32.8818C33.0661 28.0213 33.1663 28.5823 33.1663 29.1667ZM41.4997 38.3333L37.333 42.4975V38.3333H41.4997Z" fill="#00D3AB"/>
<path d="M80.459 24.2852V25.5156H76.8086V28.5098H81.7031V29.7402H70.4102V28.5098H75.2773V25.5156H71.709V19.8418H73.2676V24.2852H80.459ZM92.5586 25.3379V26.541H83.8906V19.8281H92.4492V21.0586H85.4355V22.5488H92.1621V23.7383H85.4355V25.3379H92.5586ZM93.8027 28.4688V29.7129H82.5098V28.4688H93.8027ZM109.197 26.2812V27.5254H104.303V31.2305H102.799V27.5254H97.9316V26.2812H109.197ZM108.145 20.3203V21.5234H104.33C104.474 22.7471 106.08 24.0254 108.555 24.3262L107.994 25.5293C105.95 25.2695 104.364 24.3672 103.564 23.1777C102.751 24.3809 101.151 25.2695 99.0938 25.5293L98.5469 24.3262C101.015 24.0254 102.635 22.7676 102.785 21.5234H98.9707V20.3203H102.799V18.8711H104.303V20.3203H108.145ZM119.711 18.8574V23.6836H121.543V24.9551H119.711V31.1895H118.193V18.8574H119.711ZM116.443 20.1426C116.443 23.7793 114.939 26.9648 110.824 28.9883L109.963 27.8125C112.971 26.3154 114.598 24.21 114.912 21.4004H110.633V20.1426H116.443ZM131.811 18.8574V23.7793H133.711V25.0371H131.811V31.2168H130.307V18.8574H131.811ZM129.35 20.7578V21.9746H122.062V20.7578H124.988V19.0352H126.506V20.7578H129.35ZM125.754 22.7812C127.531 22.7812 128.857 23.9844 128.857 25.6934C128.857 27.4023 127.531 28.5918 125.754 28.5918C123.949 28.5918 122.623 27.4023 122.637 25.6934C122.623 23.9844 123.949 22.7812 125.754 22.7812ZM125.754 24.0254C124.783 24.0254 124.086 24.6816 124.086 25.6934C124.086 26.7051 124.783 27.3477 125.754 27.334C126.697 27.3477 127.395 26.7051 127.408 25.6934C127.395 24.6816 126.697 24.0254 125.754 24.0254ZM144.553 18.8574V31.2168H143.021V18.8574H144.553ZM140.861 20.1699C140.861 23.8477 139.439 26.9785 135.105 29.0293L134.312 27.8125C137.546 26.2744 139.05 24.1826 139.316 21.373H134.941V20.1699H140.861Z" fill="#0D0D0D"/>
<path d="M74.0547 42.3828C74.0547 43.7188 74.9805 44.9961 76.5859 45.5352L76.0234 46.4023C74.834 45.9922 73.9609 45.1719 73.5039 44.1406C73.0469 45.2773 72.1387 46.168 70.9023 46.6016L70.3047 45.7344C71.9453 45.1719 72.9297 43.8242 72.9414 42.3711V42.0898H70.6328V41.1875H76.3164V42.0898H74.0547V42.3828ZM78.6367 40.4961V43.1914H80.1602V44.1289H78.6367V46.8242H77.5234V40.4961H78.6367ZM78.6367 47.3398V50.9961H77.5234V48.2422H71.6992V47.3398H78.6367ZM84.4844 42.0664C84.4844 43.543 85.4336 44.8555 87.0273 45.3711L86.418 46.2383C85.2637 45.8223 84.4141 45.0137 83.957 43.9648C83.5 45.166 82.5859 46.0977 81.3203 46.5547L80.7227 45.6641C82.3984 45.0898 83.3711 43.6953 83.3828 42.1133V41.082H84.4844V42.0664ZM89.5117 40.4961V46.6953H88.3984V43.543H86.1836V42.6289H88.3984V40.4961H89.5117ZM85.9961 46.9883C88.1992 46.9883 89.5469 47.7148 89.5469 48.9922C89.5469 50.2578 88.1992 50.9844 85.9961 50.9727C83.793 50.9844 82.4336 50.2578 82.4453 48.9922C82.4336 47.7148 83.793 46.9883 85.9961 46.9883ZM85.9961 47.8555C84.4609 47.8555 83.5469 48.2656 83.5469 48.9922C83.5469 49.6953 84.4609 50.0938 85.9961 50.0938C87.5312 50.0938 88.4453 49.6953 88.4453 48.9922C88.4453 48.2656 87.5312 47.8555 85.9961 47.8555ZM99.3789 40.5078V43.8828H100.902V44.8086H99.3789V48.3594H98.2656V40.5078H99.3789ZM97.3984 41.7266V42.6289H91.1406V41.7266H93.7188V40.4961H94.832V41.7266H97.3984ZM94.2695 43.1328C95.7812 43.1328 96.8125 43.918 96.8125 45.1133C96.8125 46.3086 95.7812 47.082 94.2695 47.082C92.7461 47.082 91.7148 46.3086 91.7148 45.1133C91.7148 43.918 92.7461 43.1328 94.2695 43.1328ZM94.2695 43.9883C93.3789 43.9883 92.7812 44.4219 92.793 45.1133C92.7812 45.793 93.3789 46.2148 94.2695 46.2148C95.1602 46.2148 95.7578 45.793 95.7695 45.1133C95.7578 44.4219 95.1602 43.9883 94.2695 43.9883ZM99.8242 49.8711V50.7734H92.7227V47.7383H93.8359V49.8711H99.8242ZM113.16 40.4961V45.9219H112.035V40.4961H113.16ZM113.16 46.4023V49.0039H107.312V50H113.523V50.8906H106.223V48.1953H112.059V47.2812H106.188V46.4023H113.16ZM110.594 41.1875V42.0664H109.586V44.5508C110.096 44.5156 110.6 44.4688 111.074 44.4102L111.121 45.2188C109.023 45.5352 106.574 45.6055 104.734 45.6055L104.605 44.7148L105.883 44.7031V42.0664H104.887V41.1875H110.594ZM106.949 44.6797C107.465 44.6621 107.992 44.6445 108.52 44.6094V42.0664H106.949V44.6797ZM123.531 40.4961V50.9961H122.406V40.4961H123.531ZM120.402 41.6211C120.402 44.6914 119.09 47.3633 115.492 49.0859L114.906 48.1836C117.701 46.8535 119.061 44.9609 119.277 42.5117H115.41V41.6211H120.402ZM134.77 45.3125V46.168H125.16V45.3125H134.77ZM133.586 46.9062V49.2148H127.422V50.082H133.914V50.8672H126.309V48.4766H132.484V47.7031H126.297V46.9062H133.586ZM133.562 40.7656V43.0391H127.492V43.8359H133.738V44.6211H126.391V42.3008H132.449V41.5508H126.367V40.7656H133.562ZM147.238 40.4961V51.0195H146.125V45.1836H143.957V44.2695H146.125V40.4961H147.238ZM142.223 43.4492C142.223 45.2305 143.336 47.1406 144.953 47.8555L144.285 48.7461C143.072 48.1602 142.135 46.9355 141.672 45.5C141.203 47.0293 140.248 48.3359 139.035 48.957L138.355 48.0898C139.961 47.3281 141.086 45.3359 141.098 43.4492V42.4648H138.777V41.5508H144.555V42.4648H142.223V43.4492ZM152.512 42.4297C152.512 43.7656 153.438 44.9844 155.031 45.4883L154.504 46.3555C153.309 45.9746 152.436 45.1836 151.973 44.1875C151.516 45.3359 150.596 46.2441 149.336 46.6836L148.762 45.793C150.402 45.2539 151.387 43.8945 151.398 42.4414V42.1484H149.09V41.2461H154.773V42.1484H152.512V42.4297ZM157.094 40.4961V43.0977H158.617V44.0117H157.094V46.8008H155.98V40.4961H157.094ZM153.707 47.0586C155.875 47.0586 157.188 47.7734 157.188 49.0039C157.188 50.2461 155.875 50.9844 153.707 50.9727C151.516 50.9844 150.18 50.2461 150.18 49.0039C150.18 47.7734 151.516 47.0586 153.707 47.0586ZM153.707 47.9375C152.184 47.9375 151.281 48.3242 151.293 49.0039C151.281 49.707 152.184 50.0938 153.707 50.0938C155.219 50.0938 156.098 49.707 156.098 49.0039C156.098 48.3242 155.219 47.9375 153.707 47.9375ZM167.395 40.4961V44.75H169.082V45.6758H167.395V50.9961H166.293V40.4961H167.395ZM165.379 42.1367V43.0508H159.156V42.1367H161.746V40.6367H162.859V42.1367H165.379ZM162.309 43.8242C163.809 43.8242 164.91 44.832 164.922 46.2617C164.91 47.7031 163.809 48.6992 162.309 48.7109C160.797 48.6992 159.695 47.7031 159.695 46.2617C159.695 44.832 160.797 43.8242 162.309 43.8242ZM162.309 44.7383C161.418 44.7383 160.75 45.3594 160.762 46.2617C160.75 47.1758 161.418 47.7852 162.309 47.7734C163.199 47.7852 163.855 47.1758 163.855 46.2617C163.855 45.3594 163.199 44.7383 162.309 44.7383ZM172.785 43.3672C172.785 45.043 173.488 46.8359 174.895 47.6914L174.273 48.5469C173.289 47.9551 172.621 46.9062 172.27 45.6875C171.877 47.0234 171.156 48.1602 170.137 48.7812L169.445 47.9492C170.934 47.0586 171.707 45.207 171.707 43.4141V41.457H172.785V43.3672ZM178.621 40.4961V50.9961H177.555V40.4961H178.621ZM176.441 40.6953V50.4805H175.387V45.1133H173.758V44.1875H175.387V40.6953H176.441ZM189.566 48.7578V49.6836H179.957V48.7578H182.254V46.0156C181.393 45.541 180.871 44.7852 180.871 43.8477C180.871 42.1953 182.488 41.1055 184.738 41.1055C187 41.1055 188.617 42.1953 188.617 43.8477C188.617 44.7734 188.113 45.5176 187.27 45.9922V48.7578H189.566ZM184.738 41.9961C183.086 41.9961 181.949 42.7109 181.949 43.8477C181.949 44.9727 183.086 45.7109 184.738 45.7109C186.379 45.7109 187.539 44.9727 187.539 43.8477C187.539 42.7109 186.379 41.9961 184.738 41.9961ZM183.355 48.7578H186.145V46.4141C185.717 46.5254 185.242 46.5781 184.738 46.5781C184.246 46.5781 183.777 46.5254 183.355 46.4258V48.7578ZM192.262 41.5156L192.156 47.5508H190.996L190.891 41.5156H192.262ZM191.582 50.082C191.125 50.082 190.738 49.707 190.75 49.25C190.738 48.793 191.125 48.418 191.582 48.418C192.027 48.418 192.414 48.793 192.414 49.25C192.414 49.707 192.027 50.082 191.582 50.082Z" fill="#A6A6A6"/>
</svg>
