<svg width="220" height="70" viewBox="0 0 220 70" fill="none" xmlns="http://www.w3.org/2000/svg">
<rect x="0.5" y="0.5" width="219" height="69" rx="7.5" stroke="#D9DBE1"/>
<rect x="10" y="11" width="48" height="48" rx="4" fill="#F3D479" fill-opacity="0.15"/>
<g clip-path="url(#clip0_99_9248)">
<path d="M34.0003 43.3333C38.6027 43.3333 42.3337 39.6024 42.3337 35C42.3337 30.3976 38.6027 26.6667 34.0003 26.6667C29.398 26.6667 25.667 30.3976 25.667 35C25.667 39.6024 29.398 43.3333 34.0003 43.3333Z" stroke="#F2D272" stroke-width="2" stroke-linecap="round" stroke-linejoin="round"/>
<path d="M34 31.6667V38.3333" stroke="#F2D272" stroke-width="2" stroke-linecap="round" stroke-linejoin="round"/>
<path d="M30.667 35H37.3337" stroke="#F2D272" stroke-width="2" stroke-linecap="round" stroke-linejoin="round"/>
</g>
<path d="M76.8359 20.0742C76.8359 23.8066 75.8105 27.0059 71.2578 29.2754L70.4238 28.127C72.5635 27.0674 73.835 25.8369 74.5527 24.3672L70.7109 24.7363L70.5195 23.4238L75.0176 23.1367C75.1748 22.5625 75.2705 21.9541 75.3184 21.3047H71.1621V20.0742H76.8359ZM80.0898 18.8574V23.6973H81.9219V24.9414H80.0898V31.1895H78.5723V18.8574H80.0898ZM87.541 20.2793V21.4824H84.3691V23.6016H87.0215V24.7773H84.3691V27.1699C85.8389 27.1562 86.8506 27.0879 88.0605 26.8828L88.1973 28.0996C86.7754 28.373 85.5996 28.4004 83.7266 28.4004H82.9199V20.2793H87.541ZM93.1738 18.8574V31.2168H91.6973V18.8574H93.1738ZM90.5762 19.1035V30.6152H89.1543V24.6543H87.623V23.4238H89.1543V19.1035H90.5762ZM104.699 19.9922V21.1816C104.686 22.7129 104.686 24.4355 104.207 27.0195L102.676 26.8555C103.154 24.4492 103.154 22.6924 103.168 21.209H95.7852V19.9922H104.699ZM105.875 28.373V29.6172H94.6094V28.373H98.7656V24.0801H100.27V28.373H105.875ZM117.004 18.8574V31.2305H115.5V18.8574H117.004ZM113.203 19.9375V24.5723H108.951V27.0605C110.899 27.0469 112.581 26.9512 114.502 26.623L114.639 27.8672C112.533 28.2363 110.688 28.3047 108.473 28.3047H107.393V23.3691H111.658V21.168H107.379V19.9375H113.203ZM133.396 26.2812V27.5254H128.502V31.2305H126.998V27.5254H122.131V26.2812H133.396ZM132.344 20.3203V21.5234H128.529C128.673 22.7471 130.279 24.0254 132.754 24.3262L132.193 25.5293C130.149 25.2695 128.563 24.3672 127.764 23.1777C126.95 24.3809 125.351 25.2695 123.293 25.5293L122.746 24.3262C125.214 24.0254 126.834 22.7676 126.984 21.5234H123.17V20.3203H126.998V18.8711H128.502V20.3203H132.344ZM143.91 18.8574V23.6836H145.742V24.9551H143.91V31.1895H142.393V18.8574H143.91ZM140.643 20.1426C140.643 23.7793 139.139 26.9648 135.023 28.9883L134.162 27.8125C137.17 26.3154 138.797 24.21 139.111 21.4004H134.832V20.1426H140.643ZM156.01 18.8574V23.7793H157.91V25.0371H156.01V31.2168H154.506V18.8574H156.01ZM153.549 20.7578V21.9746H146.262V20.7578H149.188V19.0352H150.705V20.7578H153.549ZM149.953 22.7812C151.73 22.7812 153.057 23.9844 153.057 25.6934C153.057 27.4023 151.73 28.5918 149.953 28.5918C148.148 28.5918 146.822 27.4023 146.836 25.6934C146.822 23.9844 148.148 22.7812 149.953 22.7812ZM149.953 24.0254C148.982 24.0254 148.285 24.6816 148.285 25.6934C148.285 26.7051 148.982 27.3477 149.953 27.334C150.896 27.3477 151.594 26.7051 151.607 25.6934C151.594 24.6816 150.896 24.0254 149.953 24.0254ZM168.752 18.8574V31.2168H167.221V18.8574H168.752ZM165.061 20.1699C165.061 23.8477 163.639 26.9785 159.305 29.0293L158.512 27.8125C161.745 26.2744 163.249 24.1826 163.516 21.373H159.141V20.1699H165.061Z" fill="#0D0D0D"/>
<path d="M78.9062 45.1836V46.0977H75.7305V48.7695H79.9961V49.6836H70.3867V48.7695H74.6172V46.0977H71.5352V41.3633H72.6602V45.1836H78.9062ZM89.2773 46.0859V46.9766H81.9648V41.3633H89.1719V42.2656H83.0898V43.6836H88.9492V44.5625H83.0898V46.0859H89.2773ZM90.3672 48.7578V49.6719H80.7578V48.7578H90.3672ZM99.5195 41.5625C99.5078 44.6562 98.5586 47.4102 94.7266 49.2969L94.1172 48.4648C96.0156 47.5332 97.1465 46.4023 97.7734 45.0664L94.3398 45.3945L94.1758 44.4336L98.1133 44.1641C98.2715 43.6309 98.3652 43.0625 98.4062 42.4648H94.7266V41.5625H99.5195ZM102.238 40.4961V44.6914H103.867V45.6055H102.238V50.9844H101.125V40.4961H102.238ZM108.73 41.7383V42.6289H105.871V44.5625H108.262V45.4297H105.871V47.6328C107.242 47.6211 108.139 47.5566 109.223 47.3633L109.316 48.2656C108.109 48.5117 107.113 48.5352 105.484 48.5352H104.805V41.7383H108.73ZM113.453 40.4961V50.9961H112.375V40.4961H113.453ZM111.285 40.7188V50.4688H110.23V45.3359H108.812V44.4336H110.23V40.7188H111.285ZM123.297 41.5039V42.5352C123.297 43.8359 123.297 45.2891 122.898 47.4336L121.773 47.3164C122.184 45.2891 122.184 43.8008 122.184 42.5352V42.4062H115.809V41.5039H123.297ZM124.375 48.6523V49.5781H114.801V48.6523H118.445V44.9492H119.547V48.6523H124.375ZM133.891 40.4961V51.0195H132.777V40.4961H133.891ZM130.68 41.4453V45.2773H126.906V47.5742C128.605 47.5684 130.094 47.4922 131.852 47.1992L131.957 48.1133C130.094 48.4297 128.512 48.5 126.66 48.5H125.77V44.3867H129.543V42.3477H125.758V41.4453H130.68ZM145.141 45.3125V46.168H135.531V45.3125H145.141ZM143.957 46.9062V49.2148H137.793V50.082H144.285V50.8672H136.68V48.4766H142.855V47.7031H136.668V46.9062H143.957ZM143.934 40.7656V43.0391H137.863V43.8359H144.109V44.6211H136.762V42.3008H142.82V41.5508H136.738V40.7656H143.934ZM158.418 46.8242V47.7383H154.176V51.0078H153.074V47.7383H148.844V46.8242H158.418ZM157.504 41.7617V42.6641H154.188C154.252 43.8242 155.834 44.9551 157.832 45.207L157.434 46.0977C155.746 45.8633 154.311 45.0723 153.637 44C152.951 45.084 151.504 45.8633 149.816 46.0977L149.406 45.207C151.404 44.9551 152.998 43.8477 153.074 42.6641H149.746V41.7617H153.074V40.4961H154.176V41.7617H157.504ZM167.395 40.4961V44.6797H169.023V45.6055H167.395V50.9844H166.281V40.4961H167.395ZM164.652 41.5977C164.641 44.6328 163.305 47.3398 159.848 49.0508L159.227 48.1836C161.857 46.8711 163.287 44.9727 163.516 42.5234H159.754V41.5977H164.652ZM177.766 40.4961V44.75H179.453V45.6758H177.766V50.9961H176.664V40.4961H177.766ZM175.75 42.1367V43.0508H169.527V42.1367H172.117V40.6367H173.23V42.1367H175.75ZM172.68 43.8242C174.18 43.8242 175.281 44.832 175.293 46.2617C175.281 47.7031 174.18 48.6992 172.68 48.7109C171.168 48.6992 170.066 47.7031 170.066 46.2617C170.066 44.832 171.168 43.8242 172.68 43.8242ZM172.68 44.7383C171.789 44.7383 171.121 45.3594 171.133 46.2617C171.121 47.1758 171.789 47.7852 172.68 47.7734C173.57 47.7852 174.227 47.1758 174.227 46.2617C174.227 45.3594 173.57 44.7383 172.68 44.7383ZM183.156 43.3672C183.156 45.043 183.859 46.8359 185.266 47.6914L184.645 48.5469C183.66 47.9551 182.992 46.9062 182.641 45.6875C182.248 47.0234 181.527 48.1602 180.508 48.7812L179.816 47.9492C181.305 47.0586 182.078 45.207 182.078 43.4141V41.457H183.156V43.3672ZM188.992 40.4961V50.9961H187.926V40.4961H188.992ZM186.812 40.6953V50.4805H185.758V45.1133H184.129V44.1875H185.758V40.6953H186.812ZM199.938 48.7578V49.6836H190.328V48.7578H192.625V46.0156C191.764 45.541 191.242 44.7852 191.242 43.8477C191.242 42.1953 192.859 41.1055 195.109 41.1055C197.371 41.1055 198.988 42.1953 198.988 43.8477C198.988 44.7734 198.484 45.5176 197.641 45.9922V48.7578H199.938ZM195.109 41.9961C193.457 41.9961 192.32 42.7109 192.32 43.8477C192.32 44.9727 193.457 45.7109 195.109 45.7109C196.75 45.7109 197.91 44.9727 197.91 43.8477C197.91 42.7109 196.75 41.9961 195.109 41.9961ZM193.727 48.7578H196.516V46.4141C196.088 46.5254 195.613 46.5781 195.109 46.5781C194.617 46.5781 194.148 46.5254 193.727 46.4258V48.7578Z" fill="#A6A6A6"/>
<defs>
<clipPath id="clip0_99_9248">
<rect width="20" height="20" fill="white" transform="translate(24 25)"/>
</clipPath>
</defs>
</svg>
