<svg width="48" height="48" viewBox="0 0 48 48" fill="none" xmlns="http://www.w3.org/2000/svg">
<rect width="48" height="48" rx="4" fill="#00D3AB" fill-opacity="0.1"/>
<path d="M17.3333 14.8333V17.3333H14.8333V18.9999H17.3333V21.4999H18.9999V18.9999H21.4999V17.3333H18.9999V14.8333H17.3333ZM23.1666 18.1666C23.1666 20.928 20.928 23.1666 18.1666 23.1666C17.5822 23.1666 17.0212 23.0663 16.4999 22.8821V30.6721C16.4999 31.1292 16.8724 31.4999 17.3318 31.4999H25.6666V26.4999C25.6666 26.0416 26.0416 25.6666 26.4999 25.6666H31.4999V17.332C31.4999 16.8728 31.1293 16.4999 30.6721 16.4999H22.8821C23.0663 17.0212 23.1666 17.5822 23.1666 18.1666ZM31.4999 27.3333L27.3333 31.4974V27.3333H31.4999Z" fill="#00D3AB"/>
</svg>
