<svg width="36" height="37" viewBox="0 0 36 37" fill="none" xmlns="http://www.w3.org/2000/svg">
<rect y="0.5" width="36" height="36" rx="18" fill="#E4EEFF"/>
<path d="M23.8877 12.2312L24.2688 12.6123C24.5648 12.9083 24.5648 13.387 24.2688 13.6798L23.3524 14.5994L21.9006 13.1476L22.817 12.2312C23.113 11.9352 23.5917 11.9352 23.8846 12.2312H23.8877ZM16.6069 18.4445L20.833 14.2152L22.2848 15.667L18.0555 19.8931C17.9642 19.9844 17.8508 20.0506 17.728 20.0852L15.8857 20.6111L16.4117 18.7689C16.4463 18.646 16.5124 18.5327 16.6037 18.4413L16.6069 18.4445ZM21.7494 11.1637L15.5362 17.3738C15.2622 17.6478 15.0638 17.9847 14.9599 18.3532L14.0592 21.5023C13.9837 21.7668 14.0561 22.0503 14.2513 22.2455C14.4466 22.4408 14.73 22.5132 14.9945 22.4376L18.1437 21.537C18.5153 21.4299 18.8522 21.2315 19.1231 20.9607L25.3363 14.7506C26.2212 13.8656 26.2212 12.4296 25.3363 11.5447L24.9553 11.1637C24.0704 10.2788 22.6344 10.2788 21.7494 11.1637ZM12.7712 12.3918C11.2408 12.3918 10 13.6326 10 15.1631V23.7288C10 25.2592 11.2408 26.5 12.7712 26.5H21.3369C22.8674 26.5 24.1082 25.2592 24.1082 23.7288V20.2017C24.1082 19.7829 23.7712 19.4459 23.3524 19.4459C22.9335 19.4459 22.5966 19.7829 22.5966 20.2017V23.7288C22.5966 24.4247 22.0329 24.9884 21.3369 24.9884H12.7712C12.0753 24.9884 11.5116 24.4247 11.5116 23.7288V15.1631C11.5116 14.4671 12.0753 13.9034 12.7712 13.9034H16.2983C16.7171 13.9034 17.0541 13.5665 17.0541 13.1476C17.0541 12.7288 16.7171 12.3918 16.2983 12.3918H12.7712Z" fill="#2D65F2"/>
</svg>
