<svg width="125" height="37" viewBox="0 0 125 37" fill="none" xmlns="http://www.w3.org/2000/svg">
<rect width="125" height="37" rx="18.5" fill="#E4EEFF"/>
<path d="M25.8877 12.2312L26.2688 12.6123C26.5648 12.9083 26.5648 13.387 26.2688 13.6798L25.3524 14.5994L23.9006 13.1476L24.817 12.2312C25.113 11.9352 25.5917 11.9352 25.8846 12.2312H25.8877ZM18.6069 18.4445L22.833 14.2152L24.2848 15.667L20.0555 19.8931C19.9642 19.9844 19.8508 20.0506 19.728 20.0852L17.8857 20.6111L18.4117 18.7689C18.4463 18.646 18.5124 18.5327 18.6037 18.4413L18.6069 18.4445ZM23.7494 11.1637L17.5362 17.3738C17.2622 17.6478 17.0638 17.9847 16.9599 18.3532L16.0592 21.5023C15.9837 21.7668 16.0561 22.0503 16.2513 22.2455C16.4466 22.4408 16.73 22.5132 16.9945 22.4376L20.1437 21.537C20.5153 21.4299 20.8522 21.2315 21.1231 20.9607L27.3363 14.7506C28.2212 13.8656 28.2212 12.4296 27.3363 11.5447L26.9553 11.1637C26.0704 10.2788 24.6344 10.2788 23.7494 11.1637ZM14.7712 12.3918C13.2408 12.3918 12 13.6326 12 15.1631V23.7288C12 25.2592 13.2408 26.5 14.7712 26.5H23.3369C24.8674 26.5 26.1082 25.2592 26.1082 23.7288V20.2017C26.1082 19.7829 25.7712 19.4459 25.3524 19.4459C24.9335 19.4459 24.5966 19.7829 24.5966 20.2017V23.7288C24.5966 24.4247 24.0329 24.9884 23.3369 24.9884H14.7712C14.0753 24.9884 13.5116 24.4247 13.5116 23.7288V15.1631C13.5116 14.4671 14.0753 13.9034 14.7712 13.9034H18.2983C18.7171 13.9034 19.0541 13.5665 19.0541 13.1476C19.0541 12.7288 18.7171 12.3918 18.2983 12.3918H14.7712Z" fill="#2D65F2"/>
<path d="M43.3145 13.1562C43.3008 16.7656 42.1934 19.9785 37.7227 22.1797L37.0117 21.209C39.2266 20.1221 40.5459 18.8027 41.2773 17.2441L37.2715 17.627L37.0801 16.5059L41.6738 16.1914C41.8584 15.5693 41.9678 14.9062 42.0156 14.209H37.7227V13.1562H43.3145ZM46.4863 11.9121V16.8066H48.3867V17.873H46.4863V24.1484H45.1875V11.9121H46.4863ZM54.0605 13.3613V14.4004H50.7246V16.6562H53.5137V17.668H50.7246V20.2383C52.3242 20.2246 53.3701 20.1494 54.6348 19.9238L54.7441 20.9766C53.3359 21.2637 52.1738 21.291 50.2734 21.291H49.4805V13.3613H54.0605ZM59.5703 11.9121V24.1621H58.3125V11.9121H59.5703ZM57.041 12.1719V23.5469H55.8105V17.5586H54.1562V16.5059H55.8105V12.1719H57.041ZM71.0547 13.0879V14.291C71.0547 15.8086 71.0547 17.5039 70.5898 20.0059L69.2773 19.8691C69.7559 17.5039 69.7559 15.7676 69.7559 14.291V14.1406H62.3184V13.0879H71.0547ZM72.3125 21.4277V22.5078H61.1426V21.4277H65.3945V17.1074H66.6797V21.4277H72.3125ZM83.4141 11.9121V24.1895H82.1152V11.9121H83.4141ZM79.668 13.0195V17.4902H75.2656V20.1699C77.248 20.1631 78.9844 20.0742 81.0352 19.7324L81.1582 20.7988C78.9844 21.168 77.1387 21.25 74.9785 21.25H73.9395V16.4512H78.3418V14.0723H73.9258V13.0195H79.668ZM98.9727 11.9121V21.0039H97.6738V17.627H95.7598V16.5332H97.6738V15.248H95.7598V14.1816H97.6738V11.9121H98.9727ZM95.623 12.8691V13.9219H94.4473V18.0234C94.9668 17.9824 95.4658 17.9414 95.9512 17.8867L96.0059 18.8438C93.6543 19.2129 90.9062 19.2539 88.9375 19.2676L88.7734 18.1738L90.2637 18.1602V13.9219H89.1152V12.8691H95.623ZM99.2871 22.8496V23.9023H90.9883V20.2656H92.3008V22.8496H99.2871ZM91.5215 18.1465C92.0752 18.1328 92.6357 18.1191 93.2031 18.0918V13.9219H91.5215V18.1465ZM105.398 13.8672C105.398 15.3848 106.588 16.8066 108.475 17.3535L107.818 18.3652C106.39 17.9346 105.31 16.998 104.756 15.7949C104.202 17.0801 103.108 18.0986 101.639 18.584L100.982 17.5586C102.883 16.9707 104.072 15.4805 104.086 13.8672V13.7305H101.338V12.6777H108.092V13.7305H105.398V13.8672ZM111.018 11.9121V18.543H109.719V11.9121H111.018ZM104.277 19.1172V20.4844H109.732V19.1172H111.018V24.0117H103.006V19.1172H104.277ZM104.277 22.959H109.732V21.5098H104.277V22.959Z" fill="#2D65F2"/>
</svg>
