<svg width="16" height="17" viewBox="0 0 16 17" fill="none" xmlns="http://www.w3.org/2000/svg">
<path d="M13.8877 2.23124L14.2688 2.61229C14.5648 2.90831 14.5648 3.38698 14.2688 3.67985L13.3524 4.59939L11.9006 3.14764L12.817 2.23124C13.113 1.93522 13.5917 1.93522 13.8846 2.23124H13.8877ZM6.6069 8.4445L10.833 4.2152L12.2848 5.66695L8.0555 9.8931C7.96418 9.98443 7.85081 10.0506 7.72799 10.0852L5.88575 10.6111L6.41165 8.76886C6.44629 8.64604 6.51242 8.53267 6.60375 8.44135L6.6069 8.4445ZM11.7494 1.16368L5.53619 7.37379C5.26222 7.64776 5.06382 7.98472 4.9599 8.35317L4.05924 11.5023C3.98366 11.7668 4.05609 12.0503 4.25134 12.2455C4.44659 12.4408 4.73001 12.5132 4.99454 12.4376L8.14368 11.537C8.51528 11.4299 8.85224 11.2315 9.12306 10.9607L15.3363 4.75055C16.2212 3.86564 16.2212 2.42964 15.3363 1.54473L14.9553 1.16368C14.0704 0.278773 12.6344 0.278773 11.7494 1.16368ZM2.77124 2.39185C1.24076 2.39185 0 3.63261 0 5.16309V13.7288C0 15.2592 1.24076 16.5 2.77124 16.5H11.3369C12.8674 16.5 14.1082 15.2592 14.1082 13.7288V10.2017C14.1082 9.78288 13.7712 9.44592 13.3524 9.44592C12.9335 9.44592 12.5966 9.78288 12.5966 10.2017V13.7288C12.5966 14.4247 12.0329 14.9884 11.3369 14.9884H2.77124C2.07528 14.9884 1.51159 14.4247 1.51159 13.7288V5.16309C1.51159 4.46713 2.07528 3.90343 2.77124 3.90343H6.29828C6.71712 3.90343 7.05408 3.56648 7.05408 3.14764C7.05408 2.7288 6.71712 2.39185 6.29828 2.39185H2.77124Z" fill="#2D65F2"/>
</svg>
