<svg width="80" height="80" viewBox="0 0 80 80" fill="none" xmlns="http://www.w3.org/2000/svg">
<path d="M38.9325 0.948246C39.0827 -0.316082 40.9173 -0.316082 41.0675 0.948246L42.326 11.5548C43.9511 25.2508 54.7493 36.049 68.4451 37.674L79.0516 38.9325C80.3161 39.0827 80.3161 40.9173 79.0516 41.0675L68.4451 42.326C54.7493 43.9511 43.9511 54.7493 42.326 68.4451L41.0675 79.0516C40.9173 80.3161 39.0827 80.3161 38.9325 79.0516L37.674 68.4451C36.049 54.7493 25.2508 43.9511 11.5548 42.326L0.948246 41.0675C-0.316082 40.9173 -0.316082 39.0827 0.948246 38.9325L11.5548 37.674C25.2508 36.049 36.049 25.2508 37.674 11.5548L38.9325 0.948246Z" fill="#F2D272"/>
</svg>
