<svg width="181" height="270" viewBox="0 0 181 270" fill="none" xmlns="http://www.w3.org/2000/svg">
<line x1="62.0984" y1="17.6276" x2="158.415" y2="50.7366" stroke="#FFD74E" stroke-width="1.2" stroke-linecap="round" stroke-dasharray="4 4"/>
<line x1="61.8331" y1="18.6876" x2="48.3194" y2="102.773" stroke="#FFD74E" stroke-width="1.2" stroke-linecap="round" stroke-dasharray="4 4"/>
<line x1="47.9063" y1="103.922" x2="34.5807" y2="136.496" stroke="#D9D9D9" stroke-linecap="round" stroke-dasharray="4 4"/>
<line x1="121.337" y1="233.05" x2="130.21" y2="265.584" stroke="#D9D9D9" stroke-linecap="round" stroke-dasharray="4 4"/>
<line x1="177.072" y1="175.543" x2="121.43" y2="232.689" stroke="#D9D9D9" stroke-linecap="round" stroke-dasharray="4 4"/>
<line x1="33.7994" y1="137.465" x2="5.69365" y2="156.695" stroke="#D9D9D9" stroke-linecap="round" stroke-dasharray="4 4"/>
<line x1="159.352" y1="51.9209" x2="177.48" y2="175.792" stroke="#D9D9D9" stroke-linecap="round" stroke-dasharray="4 4"/>
<line x1="62.0351" y1="18.1055" x2="177.166" y2="174.137" stroke="#D9D9D9" stroke-linecap="round" stroke-dasharray="4 4"/>
<path d="M56.9081 8.22143C58.8877 4.93194 63.6568 4.93194 65.6364 8.22143C66.4872 9.6352 67.875 10.6435 69.4825 11.0158C73.2227 11.882 74.6965 16.4177 72.1797 19.3169C71.0981 20.563 70.568 22.1944 70.7106 23.8383C71.0426 27.6632 67.1843 30.4663 63.6493 28.9687C62.1299 28.325 60.4145 28.325 58.8952 28.9687C55.3601 30.4663 51.5019 27.6632 51.8338 23.8383C51.9765 22.1944 51.4464 20.563 50.3648 19.3169C47.848 16.4177 49.3217 11.882 53.062 11.0158C54.6694 10.6435 56.0572 9.6352 56.9081 8.22143Z" fill="#FFD74E" stroke="black"/>
<circle cx="57.5078" cy="16.2417" r="0.660142" fill="#262626" stroke="black"/>
<circle cx="65.0508" cy="16.2417" r="0.660142" fill="#262626" stroke="black"/>
<path d="M59.2422 19.1431C59.2422 19.1431 59.7959 20.3032 61.2724 20.3032C62.749 20.3032 63.3027 19.1431 63.3027 19.1431" stroke="black" stroke-linecap="round"/>
<path d="M154.908 42.2214C156.888 38.9319 161.657 38.9319 163.636 42.2214C164.487 43.6352 165.875 44.6435 167.483 45.0158C171.223 45.882 172.696 50.4177 170.18 53.3169C169.098 54.563 168.568 56.1944 168.711 57.8383C169.043 61.6632 165.184 64.4663 161.649 62.9687C160.13 62.325 158.415 62.325 156.895 62.9687C153.36 64.4663 149.502 61.6632 149.834 57.8383C149.976 56.1944 149.446 54.563 148.365 53.3169C145.848 50.4177 147.322 45.882 151.062 45.0158C152.669 44.6435 154.057 43.6352 154.908 42.2214Z" fill="#FFD74E" stroke="black"/>
<circle cx="155.508" cy="50.2417" r="0.660142" fill="#262626" stroke="black"/>
<circle cx="163.051" cy="50.2417" r="0.660142" fill="#262626" stroke="black"/>
<path d="M157.242 53.1431C157.242 53.1431 157.796 54.3032 159.272 54.3032C160.749 54.3032 161.303 53.1431 161.303 53.1431" stroke="black" stroke-linecap="round"/>
<path d="M40.9081 98.2214C42.8877 94.9319 47.6568 94.9319 49.6364 98.2214C50.4872 99.6352 51.875 100.643 53.4825 101.016C57.2227 101.882 58.6965 106.418 56.1797 109.317C55.0981 110.563 54.568 112.194 54.7106 113.838C55.0426 117.663 51.1843 120.466 47.6493 118.969C46.1299 118.325 44.4145 118.325 42.8952 118.969C39.3601 120.466 35.5019 117.663 35.8338 113.838C35.9765 112.194 35.4464 110.563 34.3648 109.317C31.848 106.418 33.3217 101.882 37.062 101.016C38.6694 100.643 40.0572 99.6352 40.9081 98.2214Z" fill="#FFD74E" stroke="black"/>
<circle cx="41.5078" cy="106.242" r="0.660142" fill="#262626" stroke="black"/>
<circle cx="49.0508" cy="106.242" r="0.660142" fill="#262626" stroke="black"/>
<path d="M43.2422 109.143C43.2422 109.143 43.7959 110.303 45.2724 110.303C46.749 110.303 47.3027 109.143 47.3027 109.143" stroke="black" stroke-linecap="round"/>
<circle cx="3.41506" cy="158.415" r="2.5" transform="rotate(-60 3.41506 158.415)" fill="#939393"/>
<circle cx="34.4151" cy="137.415" r="2.5" transform="rotate(-60 34.4151 137.415)" fill="#939393"/>
<circle cx="177.415" cy="175.415" r="2.5" transform="rotate(-60 177.415 175.415)" fill="#939393"/>
<circle cx="121.415" cy="233.415" r="2.5" transform="rotate(-60 121.415 233.415)" fill="#939393"/>
<circle cx="130.415" cy="266.415" r="2.5" transform="rotate(-60 130.415 266.415)" fill="#939393"/>
</svg>
